<svg width="36" height="38" viewBox="0 0 36 38" fill="none" xmlns="http://www.w3.org/2000/svg">
<path fill-rule="evenodd" clip-rule="evenodd" d="M10.0214 0.0486073C8.49454 0.198543 7.05216 0.584514 5.97144 1.13217C3.87546 2.19437 1.99994 4.10623 1.02502 6.17444C0.357579 7.59038 0 9.20531 0 10.8035C0 13.1787 0.726421 15.3884 2.10548 17.2076C3.34805 18.847 3.58182 19.2005 4.00547 20.0817C4.73366 21.5961 4.81658 22.0727 5.45964 28.4366C5.77634 31.5706 6.09773 34.3552 6.17391 34.6246C6.39722 35.4143 6.81466 36.1046 7.40043 36.6529C8.34573 37.5377 9.29723 37.9198 10.55 37.9178C12.4991 37.9148 14.1316 36.7384 14.8322 34.8322C15.0073 34.3556 15.0271 34.0862 15.0727 31.5528L15.1223 28.7927L15.3651 28.3289C15.66 27.7658 16.2176 27.2115 16.7588 26.9437C17.3466 26.6528 18.6669 26.6565 19.2618 26.9508C19.8408 27.237 20.3727 27.784 20.6503 28.3783C20.8846 28.88 20.8856 28.8915 20.9327 31.5974C20.977 34.1335 20.9936 34.3511 21.1835 34.8917C21.4571 35.6702 21.8173 36.2153 22.4408 36.7949C24.4876 38.6973 27.6971 38.2978 29.2615 35.9459C29.8728 35.0268 29.9207 34.749 30.5481 28.4811C30.9087 24.8784 31.1869 22.4885 31.2945 22.0678C31.7008 20.48 32.4061 19.115 33.5168 17.7668C34.5614 16.499 35.2933 15.0581 35.714 13.4406C36.0122 12.2945 36.091 10.292 35.8848 9.10372C35.4847 6.79769 34.564 4.97086 32.9663 3.31212C31.6825 1.97953 30.1168 1.01669 28.3793 0.491471C27.2937 0.163286 26.5327 0.0564426 25.2753 0.0558193C23.116 0.0547509 21.3704 0.58113 19.3347 1.84722C18.6987 2.2428 18.643 2.26008 18.0031 2.26008C17.3597 2.26008 17.3105 2.2445 16.6539 1.83368C15.6231 1.18871 14.4207 0.648886 13.4536 0.396915C12.675 0.194092 10.9728 -0.0330384 10.5092 0.00400046C10.4116 0.0117466 10.1922 0.0318686 10.0214 0.0486073ZM13.0811 1.76869C13.8994 1.99226 15.0344 2.50555 15.841 3.01706C16.7417 3.58813 17.0543 3.68465 18.0031 3.68465C18.9501 3.68465 19.2649 3.58787 20.1566 3.02258C20.9427 2.52425 21.9134 2.08236 22.8365 1.80279C23.5719 1.58002 23.76 1.56043 25.231 1.55438C26.6371 1.54859 26.9169 1.57237 27.5792 1.754C28.6756 2.05467 29.5019 2.42453 30.3887 3.01145C33.5686 5.11617 35.1597 8.93883 34.4045 12.6595C34.0664 14.3247 33.5591 15.3563 32.2553 17.0298C31.3896 18.1407 30.8607 19.0303 30.4393 20.0841C29.842 21.5775 29.7478 22.1686 29.1321 28.2889C28.757 32.018 28.5021 34.1908 28.4084 34.4574C27.9676 35.7112 26.8314 36.4943 25.4529 36.4943C24.2347 36.4943 23.237 35.8594 22.684 34.7322L22.393 34.1392L22.3447 31.377C22.3002 28.8348 22.2813 28.5772 22.1083 28.1445C21.3865 26.3398 19.8668 25.2798 17.9971 25.2769C16.1718 25.274 14.596 26.3677 13.9075 28.1156C13.724 28.5814 13.7076 28.7983 13.6621 31.377L13.6132 34.1392L13.3222 34.7322C13.1371 35.1095 12.8695 35.4714 12.5863 35.7269C11.2265 36.9543 9.00687 36.6993 7.97759 35.1974C7.82639 34.9767 7.64662 34.6273 7.57807 34.421C7.5096 34.2146 7.19167 31.4504 6.8716 28.2783C6.25364 22.1546 6.16017 21.5673 5.56695 20.0841C5.14552 19.0303 4.6166 18.1407 3.75094 17.0298C2.46997 15.3857 1.93307 14.2918 1.59882 12.6449C0.872752 9.06802 2.35708 5.3043 5.32191 3.2043C6.43341 2.41714 7.44867 1.96733 8.77984 1.67262C9.83812 1.43828 12.0525 1.48778 13.0811 1.76869ZM9.40064 3.93867C7.09526 4.55337 5.24715 6.15405 4.35294 8.31059C4.08245 8.96278 3.81347 10.0352 3.81347 10.4612C3.81347 10.766 4.18683 11.1191 4.50911 11.1191C4.95715 11.1191 5.1355 10.8832 5.3165 10.0507C5.69732 8.29982 6.631 6.96873 8.1147 6.06172C8.71883 5.6924 9.33324 5.46038 10.163 5.28836C10.547 5.20867 10.9294 5.08162 11.0128 5.00585C11.3366 4.71159 11.2883 4.13027 10.916 3.84331C10.7088 3.68358 10.2486 3.71261 9.40064 3.93867Z" fill="#F4F4F4"/>
</svg>
