<svg width="32" height="44" viewBox="0 0 32 44" fill="none" xmlns="http://www.w3.org/2000/svg">
<path fill-rule="evenodd" clip-rule="evenodd" d="M8.39049 0.13448C4.24772 0.785015 0.989469 4.02731 0.15041 8.33428C-0.0316077 9.26837 -0.0525492 11.4101 0.110184 12.4507C0.354154 14.0112 0.734331 15.2367 1.35691 16.4697C2.14021 18.0209 3.17333 19.1995 4.58392 20.1511L5.3667 20.6792H6.57808H7.78947L7.81582 23.5463L7.84208 26.4133L8.16798 26.7144C8.48569 27.008 8.51274 27.0156 9.23688 27.0156C9.6455 27.0156 9.97987 27.0317 9.97987 27.0514C9.97987 27.0711 10.0977 27.7218 10.2416 28.4973C10.3856 29.2729 10.5034 29.9301 10.5034 29.9577C10.5034 29.9853 10.3817 30.0078 10.2329 30.0078C10.0416 30.0078 9.87551 30.0954 9.66574 30.307C9.4134 30.5615 9.36907 30.6674 9.36907 31.0154C9.36907 31.7025 9.72918 32.179 10.5682 32.602C10.8645 32.7513 11.0408 32.9009 11.0684 33.0263C11.1451 33.3748 11.5505 35.589 11.5505 35.6594C11.5505 35.6972 11.4486 35.7281 11.324 35.7281C10.8155 35.7281 10.3289 36.2661 10.3289 36.8282C10.3289 37.4155 10.9693 38.1168 11.74 38.3733C12.1163 38.4985 12.0285 38.1951 12.6047 41.3605C12.803 42.4495 13.0027 43.412 13.0487 43.4993C13.0947 43.5866 13.2573 43.7349 13.4103 43.829C13.6671 43.9869 13.8645 44 16.0006 44C18.0893 44 18.3382 43.9843 18.5746 43.8386C18.7186 43.7499 18.8847 43.5817 18.9437 43.4649C19.0026 43.3481 19.2102 42.3813 19.4048 41.3165C19.9752 38.1963 19.8852 38.5069 20.2571 38.3717C21.06 38.0799 21.5677 37.5673 21.6473 36.9683C21.7326 36.3272 21.2621 35.7281 20.6732 35.7281C20.5507 35.7281 20.4507 35.6972 20.4507 35.6594C20.4507 35.5871 20.8578 33.3658 20.9349 33.0176C20.9648 32.8828 21.1054 32.7609 21.3567 32.6523C21.8091 32.4568 22.3317 32.0104 22.5056 31.6712C22.5752 31.5356 22.6321 31.2405 22.6321 31.0154C22.6321 30.6674 22.5878 30.5615 22.3354 30.307C22.1256 30.0954 21.9595 30.0078 21.7682 30.0078C21.6195 30.0078 21.4977 29.9853 21.4977 29.9577C21.4977 29.9301 21.6155 29.2729 21.7595 28.4973C21.9035 27.7218 22.0213 27.0711 22.0213 27.0514C22.0213 27.0317 22.3556 27.0156 22.7643 27.0156C23.4884 27.0156 23.5155 27.008 23.8332 26.7144L24.1591 26.4133L24.1853 23.5463L24.2117 20.6792H25.4121H26.6126L27.1151 20.374C29.6828 18.8146 31.3715 16.0252 31.8904 12.4865C32.0516 11.3875 32.0318 9.26353 31.8519 8.34C30.8782 3.34412 26.8591 -0.00606412 21.8468 8.24116e-06C20.6055 0.00150433 19.6936 0.228558 18.3603 0.868004C17.526 1.26808 16.6577 1.43731 15.7056 1.38556C14.8689 1.34006 14.3358 1.1828 12.9902 0.584363C11.7027 0.011713 10.1434 -0.1408 8.39049 0.13448ZM11.3466 2.24062C11.6423 2.31094 12.2313 2.5306 12.6554 2.72879C13.9755 3.34562 14.5504 3.47314 16.0006 3.47129C17.4735 3.46944 17.8961 3.37571 19.36 2.7265C20.5822 2.18448 21.1639 2.06989 22.3554 2.1366C25.8741 2.33338 28.6366 4.5556 29.6152 7.97637C30.3402 10.5106 29.7953 14.0823 28.3492 16.2761C27.8759 16.9944 27.0458 17.8742 26.4546 18.2844L26.0473 18.5671H15.9928H5.93832L5.49409 18.2275C3.78317 16.9195 2.70781 15.0353 2.26612 12.5716C1.8404 10.1973 2.08934 8.21697 3.05021 6.33436C4.14345 4.19232 6.19433 2.68311 8.6136 2.24027C9.4606 2.08529 10.6941 2.08538 11.3466 2.24062ZM22.1085 22.7913V24.9035H16.0006H9.89261V22.7913V20.6792H16.0006H22.1085V22.7913ZM19.8399 27.1977C19.8399 27.3605 19.4616 29.5008 19.2247 30.6788L19.134 31.1298L18.3685 31.2289C17.3821 31.3565 14.619 31.3565 13.6327 31.2289L12.8672 31.1298L12.7762 30.6788C12.5226 29.4219 12.1619 27.3881 12.1616 27.2136L12.1613 27.0156H16.0006C19.8247 27.0156 19.8399 27.0163 19.8399 27.1977ZM16.0006 33.4471C16.8359 33.4471 17.7863 33.4206 18.1124 33.3881C18.5627 33.3434 18.7055 33.356 18.7055 33.4403C18.7055 33.8198 18.1364 36.5878 18.0362 36.6962C17.9347 36.8057 17.5889 36.8282 16.0006 36.8282C14.4122 36.8282 14.0664 36.8057 13.965 36.6962C13.8647 36.5878 13.2956 33.8198 13.2956 33.4403C13.2956 33.356 13.4385 33.3434 13.8887 33.3881C14.2149 33.4206 15.1653 33.4471 16.0006 33.4471ZM17.4436 40.3924L17.1781 41.8445H16.0016H14.8251L14.6697 41.0084C14.5842 40.5486 14.4627 39.8952 14.3995 39.5564L14.2847 38.9403H15.9969H17.7091L17.4436 40.3924Z" fill="#F4F4F4"/>
</svg>
