<svg width="38" height="32" viewBox="0 0 38 32" fill="none" xmlns="http://www.w3.org/2000/svg">
<path fill-rule="evenodd" clip-rule="evenodd" d="M15.8803 0.0455275C8.08178 0.38335 1.9512 1.67069 0.538586 3.26712C-0.104181 3.99357 -0.157138 4.69832 0.319181 6.18764C0.56124 6.94432 0.590058 7.11183 0.553367 7.5483C0.407121 9.28866 0.406899 9.26009 0.570153 9.8073C0.755244 10.4275 1.22792 11.0224 1.68278 11.2076L1.96992 11.3245L2.01352 12.5578C2.09195 14.7764 2.5428 16.0965 3.40891 16.6438C3.85336 16.9246 4.89877 17.0791 6.33604 17.0763C8.37784 17.0723 9.17747 16.7928 9.68268 15.9066C9.75012 15.7883 9.79959 15.8507 10.0296 16.3436C10.7238 17.8314 11.4139 18.0999 14.5433 18.0999C16.9684 18.0999 17.6521 17.9347 18.3239 17.1866C18.5224 16.9655 18.7473 16.63 18.8237 16.441C18.9001 16.2519 18.9793 16.0972 18.9998 16.0972C19.0202 16.0972 19.0994 16.2519 19.1758 16.441C19.3706 16.9231 19.9613 17.5558 20.3909 17.7426C20.9948 18.0052 21.8182 18.0951 23.6419 18.0976C26.6059 18.1015 27.2764 17.8298 27.9699 16.3436C28.2007 15.8491 28.2492 15.7881 28.3168 15.9078C28.5094 16.2486 28.9077 16.62 29.2316 16.7608C29.7049 16.9666 30.694 17.0794 31.9977 17.0765C33.8843 17.0723 34.653 16.8294 35.1612 16.0769C35.6847 15.3018 35.9253 14.2753 35.986 12.5578L36.0296 11.3245L36.3167 11.2076C36.7716 11.0224 37.2443 10.4275 37.4294 9.8073C37.5926 9.26009 37.5924 9.28866 37.4462 7.5483C37.4097 7.11402 37.4387 6.94258 37.6734 6.20329C38.0174 5.12065 38.0715 4.62 37.9067 4.04346C37.6668 3.20332 36.7524 2.52791 35.0935 1.96542C34.4562 1.74938 34.3575 1.73411 34.1745 1.82339C33.935 1.94025 33.8124 2.23325 33.8831 2.51982C33.938 2.74236 33.9237 2.73465 35.0669 3.16439C36.3785 3.65756 36.8998 4.07989 36.8998 4.64941C36.8998 4.7854 36.7768 5.28212 36.6265 5.75321C36.3861 6.50694 36.3533 6.70061 36.3531 7.36574C36.3531 7.7815 36.3795 8.34278 36.4119 8.61302C36.4822 9.19962 36.3847 9.63964 36.1114 9.97028C36.0067 10.0969 35.8962 10.2005 35.8659 10.2005C35.8355 10.2005 35.7035 10.0321 35.5725 9.82635C35.2361 9.29796 34.7311 8.87291 34.0409 8.53705C33.2907 8.17194 32.7584 8.06051 31.7749 8.06248C30.4149 8.0652 29.4087 8.42563 28.5703 9.2105L28.1179 9.63397L27.6253 9.14232C26.7995 8.31798 25.7633 7.86526 24.3251 7.70062C22.4358 7.4842 20.6269 8.02733 19.5042 9.14806L19.0059 9.64546L18.5015 9.1464C17.3624 8.01947 15.5707 7.48526 13.6555 7.70153C12.2565 7.85944 11.1849 8.3396 10.3443 9.1851L9.88835 9.6438L9.44812 9.2229C8.61945 8.43061 7.5863 8.06308 6.1875 8.06301C5.23278 8.06293 4.63873 8.19469 3.885 8.57349C3.2507 8.89233 2.74519 9.32654 2.42767 9.8253C2.29628 10.0317 2.164 10.2005 2.13362 10.2005C2.10332 10.2005 1.99287 10.0969 1.88814 9.97028C1.61482 9.63964 1.51737 9.19962 1.58763 8.61302C1.62002 8.34278 1.64646 7.7815 1.64638 7.36574C1.64623 6.70061 1.61341 6.50694 1.37298 5.75321C1.0617 4.77746 1.04075 4.51705 1.24582 4.17461C1.90255 3.07845 6.62839 1.89285 12.3151 1.39765C14.7237 1.18788 17.3095 1.1079 20.1881 1.15417C24.6946 1.22658 28.019 1.52782 31.279 2.15917C32.0907 2.3164 32.3438 2.34044 32.4875 2.27376C32.841 2.10981 32.8876 1.53122 32.5642 1.31971C32.1688 1.06111 28.6184 0.518585 25.6473 0.26278C23.0049 0.035247 18.4542 -0.0659713 15.8803 0.0455275ZM15.546 4.73256C13.0658 4.85343 10.5162 5.08527 8.591 5.36497C6.27395 5.70165 3.43342 6.36861 3.06687 6.66205C2.82221 6.85784 2.81627 7.23845 3.05417 7.46598C3.27484 7.67688 3.32074 7.67446 4.27412 7.4015C6.46461 6.77439 9.90068 6.24977 13.7634 5.95254C15.446 5.82313 22.533 5.82117 24.1989 5.94975C28.1303 6.2531 31.4201 6.75443 33.6932 7.39659C34.6844 7.67658 34.7487 7.67961 34.9557 7.4554C35.1573 7.23694 35.1664 6.86752 34.9745 6.69071C34.5667 6.31524 31.223 5.57791 28.284 5.21559C25.1034 4.82342 22.4048 4.67707 18.7103 4.6965C17.2151 4.70436 15.7911 4.72054 15.546 4.73256ZM15.8763 8.95704C16.5788 9.12538 17.2685 9.501 17.7428 9.97368C18.3946 10.6231 18.4192 10.701 18.4203 12.1189C18.4217 13.8473 18.2526 14.94 17.8381 15.8799C17.4529 16.7534 17.0689 16.9116 15.1641 16.9809C13.7475 17.0324 12.2009 16.9077 11.7512 16.7058C11.2598 16.4851 10.937 15.8979 10.6683 14.736C10.5544 14.2436 10.5104 13.7178 10.4799 12.485L10.44 10.8766L10.7035 10.4727C11.2763 9.59459 12.2811 9.02908 13.6066 8.83874C14.1915 8.75475 15.266 8.81077 15.8763 8.95704ZM24.9974 8.95553C25.9442 9.17754 26.8344 9.76505 27.296 10.4727L27.5595 10.8766L27.5197 12.485C27.4744 14.3125 27.3408 15.093 26.9292 15.9364C26.5213 16.772 26.1541 16.9162 24.2636 16.9834C23.1245 17.0239 21.4961 16.9203 21.0014 16.7759C20.1105 16.5158 19.587 14.8439 19.5803 12.2356C19.5764 10.7717 19.5888 10.7193 20.0695 10.1517C21.0394 9.00663 23.0912 8.50863 24.9974 8.95553ZM7.52755 9.37665C8.10755 9.5574 8.62019 9.90663 8.97396 10.3622C9.23318 10.6959 9.26043 10.777 9.30775 11.3554C9.36665 12.0749 9.24305 13.6843 9.07891 14.3351C8.93207 14.9174 8.62606 15.5481 8.42745 15.6779C8.15635 15.8552 7.43478 15.9456 6.30381 15.944C5.02838 15.9422 4.2534 15.8449 3.99641 15.6541C3.72932 15.4559 3.47048 14.9428 3.30626 14.2862C3.19982 13.8604 3.15452 13.3508 3.12778 12.2793L3.09205 10.843L3.32683 10.4863C4.07158 9.35511 5.90466 8.87094 7.52755 9.37665ZM32.4121 9.22335C33.4437 9.3694 34.2246 9.80572 34.6727 10.4863L34.9075 10.843L34.8717 12.2793C34.8328 13.8427 34.7069 14.5721 34.3697 15.1867C34.1202 15.6415 33.897 15.7858 33.2951 15.8816C32.7013 15.9762 30.3428 15.9218 29.8809 15.8028C29.1319 15.61 28.7241 14.3091 28.7036 12.047C28.6926 10.84 28.6939 10.8301 28.8965 10.5182C29.3304 9.85092 30.2035 9.34687 31.1436 9.22101C31.7887 9.13461 31.7851 9.13461 32.4121 9.22335ZM4.39771 18.5949C3.86918 18.6651 3.43943 18.8331 3.1892 19.0673C2.96816 19.2741 2.61194 20.0204 2.54673 20.4134C2.50039 20.6925 2.48375 20.7079 2.22587 20.7095C1.53066 20.7137 0.831597 21.359 0.569039 22.2386C0.407047 22.7815 0.407196 22.755 0.553367 24.4938C0.590058 24.9303 0.56124 25.0978 0.319181 25.8545C-0.176969 27.4059 -0.107226 28.1068 0.616574 28.8434C1.61504 29.8596 4.46634 30.7441 8.74356 31.3643C11.081 31.7032 11.2786 31.7145 11.4795 31.5212C11.6971 31.3119 11.7046 30.8981 11.4946 30.6989C11.381 30.5912 11.1413 30.5322 10.5476 30.4657C6.89548 30.0567 3.65936 29.3046 2.04516 28.4897C1.51544 28.2222 1.34966 28.0861 1.20356 27.7985C1.04551 27.4875 1.07529 27.2221 1.37298 26.2889C1.61341 25.5352 1.64623 25.3415 1.64638 24.6764C1.64646 24.2606 1.62002 23.6994 1.58763 23.4291C1.5496 23.1114 1.55867 22.8255 1.61333 22.6199C1.71085 22.2531 2.02206 21.8416 2.20188 21.8418C2.31143 21.8418 2.32525 21.9707 2.32525 22.9946C2.32525 24.0976 2.33401 24.1654 2.52846 24.5684C3.07467 25.7003 4.26811 26.3819 5.51903 26.2765C6.20012 26.2191 6.47338 26.1326 7.00755 25.8052C7.40611 25.561 7.45751 25.5467 7.52443 25.6616C7.92595 26.3512 8.5067 26.8724 9.17688 27.1444C9.52983 27.2877 9.74611 27.3182 10.4211 27.32C11.38 27.3225 11.7911 27.2053 12.4128 26.7522L12.8217 26.4542L13.0069 26.7758C13.281 27.2518 13.9589 27.8664 14.4869 28.1174C15.8705 28.7754 17.6228 28.4728 18.6154 27.4047L18.9998 26.991L19.3841 27.4047C20.9162 29.0533 23.8727 28.7194 24.9954 26.7709C25.1741 26.4607 25.1892 26.4515 25.3405 26.5638C25.7743 26.8857 26.1013 27.081 26.3799 27.1845C26.8178 27.3472 27.8814 27.4004 28.3671 27.2839C29.1891 27.0867 29.9549 26.5382 30.3389 25.8714C30.442 25.6922 30.5406 25.5457 30.558 25.5457C30.5754 25.5457 30.7183 25.6323 30.8755 25.7382C31.8736 26.4104 33.2954 26.467 34.2895 25.8741C34.7432 25.6035 35.2035 25.0936 35.4574 24.5804C35.6654 24.16 35.6717 24.1133 35.6729 22.9946C35.6741 21.9713 35.6881 21.8418 35.7976 21.8418C35.9775 21.8416 36.2887 22.2531 36.3862 22.6199C36.4409 22.8255 36.4499 23.1114 36.4119 23.4291C36.3795 23.6994 36.3531 24.2606 36.3531 24.6764C36.3533 25.3415 36.3861 25.5352 36.6265 26.2889C36.9378 27.2647 36.9588 27.5251 36.7537 27.8675C36.0344 29.068 30.6095 30.3191 24.1989 30.7627C22.1306 30.9058 17.8184 30.9427 15.3897 30.8381C13.1251 30.7405 13.1196 30.7407 12.9651 30.898C12.7624 31.1043 12.7634 31.4782 12.9674 31.6859C13.21 31.9327 14.3992 31.9957 18.8884 31.9999C23.0247 32.0037 24.7153 31.9234 27.5699 31.5876C31.8968 31.0786 35.2773 30.2445 36.8096 29.3077C37.6666 28.7838 38.0793 28.0181 37.9874 27.1227C37.9627 26.8826 37.8215 26.3048 37.6734 25.8389C37.4387 25.0996 37.4097 24.9281 37.4462 24.4938C37.5923 22.755 37.5925 22.7815 37.4305 22.2386C37.1679 21.359 36.4689 20.7137 35.7737 20.7095C35.5158 20.7079 35.4991 20.6925 35.4528 20.4134C35.3876 20.0204 35.0314 19.2741 34.8103 19.0673C34.5261 18.8014 34.134 18.6724 33.3427 18.5848C32.4445 18.4854 31.3821 18.5927 30.8938 18.8321C30.6069 18.9727 30.229 19.4222 30.1185 19.7543C30.1031 19.8006 29.9563 19.7155 29.7923 19.5652C29.365 19.1736 28.9319 19.0824 27.5041 19.0835C25.8544 19.0848 25.4111 19.2471 24.9788 20.0081C24.8563 20.2239 24.7393 20.4011 24.7189 20.402C24.6984 20.4029 24.6089 20.2892 24.52 20.1493C24.1783 19.6123 23.1663 19.3756 21.5001 19.443C20.2666 19.493 19.8622 19.6138 19.4665 20.0507C19.3044 20.2297 19.1331 20.4422 19.0858 20.5231C19.0009 20.6681 18.9986 20.668 18.9117 20.5188C18.8632 20.4357 18.6877 20.2219 18.5217 20.0437C18.1154 19.6076 17.7026 19.4974 16.2888 19.4475C14.6473 19.3895 13.7822 19.6141 13.4513 20.1842C13.3807 20.3059 13.305 20.4054 13.2831 20.4054C13.2612 20.4054 13.1626 20.2506 13.0639 20.0614C12.6485 19.2644 12.1389 19.0816 10.3468 19.0864C8.93006 19.0903 8.6121 19.1646 8.16512 19.5961C8.02407 19.7322 7.90063 19.8016 7.88347 19.7543C7.86668 19.7079 7.7578 19.5172 7.64141 19.3305C7.35828 18.8761 6.97317 18.6971 6.06041 18.5958C5.26212 18.5071 5.06002 18.507 4.39771 18.5949ZM5.99542 19.7269C6.29824 19.7669 6.60328 19.8524 6.67325 19.9169C6.98119 20.2004 7.18656 21.3906 7.18871 22.9041C7.19019 23.9097 7.18611 23.9351 6.97131 24.2799C6.17182 25.563 4.08584 25.4045 3.51742 24.0174C3.21787 23.2866 3.54275 20.2281 3.95705 19.8782C4.18574 19.685 5.14142 19.6141 5.99542 19.7269ZM33.8336 19.7912C34.2516 19.9009 34.4978 20.8128 34.5717 22.525C34.6263 23.7893 34.5741 24.0433 34.1664 24.5028C33.8298 24.8819 33.4204 25.0941 32.9253 25.1461C32.1116 25.2316 31.3673 24.8761 30.9907 24.2222L30.7908 23.875L30.8272 22.5749C30.8673 21.1399 31.015 20.2948 31.2804 19.982C31.3876 19.8555 31.5635 19.7708 31.812 19.7259C32.1993 19.656 33.4758 19.6972 33.8336 19.7912ZM11.8019 20.3146C12.2411 20.4923 12.5371 21.8461 12.5376 23.6786C12.5379 24.9252 12.5003 25.065 12.0284 25.571C11.8797 25.7305 11.6244 25.9314 11.461 26.0176C11.1013 26.2074 10.2566 26.2793 9.81526 26.1578C9.34637 26.0288 8.81887 25.6289 8.56642 25.2113L8.34144 24.8391L8.34627 23.6617C8.35125 22.466 8.43191 21.7384 8.63735 21.0366C8.78278 20.5398 8.94848 20.3345 9.27165 20.2509C9.60611 20.1644 11.5516 20.2134 11.8019 20.3146ZM28.8932 20.3165C29.131 20.4142 29.2708 20.6663 29.4263 21.2781C29.5949 21.9416 29.7206 23.4459 29.6719 24.2148C29.6203 25.0274 29.4062 25.448 28.8506 25.8281C28.3795 26.1505 27.9877 26.2502 27.3556 26.2086C26.748 26.1686 26.3631 25.9913 25.9711 25.571C25.456 25.0187 25.4381 24.936 25.4834 23.3201C25.5253 21.8239 25.6239 21.1975 25.9061 20.6345C26.0281 20.3911 26.1099 20.3255 26.3706 20.2623C26.7679 20.166 28.624 20.2059 28.8932 20.3165ZM17.18 20.6306C17.7263 20.7204 17.8955 20.8931 18.1013 21.5715C18.3224 22.2997 18.419 23.1869 18.4198 24.4939C18.4203 25.6036 18.4096 25.6937 18.2339 26.0436C17.3775 27.7495 14.8672 27.7743 13.8922 26.0863C13.6917 25.739 13.6892 25.7189 13.6954 24.4496C13.7021 23.0941 13.798 22.2543 14.0319 21.5032C14.2195 20.9011 14.3227 20.7797 14.7451 20.664C15.1706 20.5476 16.5582 20.5286 17.18 20.6306ZM23.4339 20.7058C23.8704 20.8706 24.1377 21.7213 24.2812 23.4014C24.3945 24.7302 24.3244 25.7081 24.086 26.122C23.8308 26.5653 23.29 27.0254 22.8376 27.1842C22.3471 27.3562 21.5361 27.3549 21.0296 27.1812C20.5685 27.0229 20.0191 26.5506 19.798 26.1223C19.3949 25.3415 19.5528 22.1436 20.0433 21.1563C20.2138 20.8131 20.3172 20.7283 20.6767 20.6364C21.0594 20.5388 23.1293 20.5908 23.4339 20.7058Z" fill="#F4F4F4"/>
</svg>
