<svg width="52" height="52" viewBox="0 0 52 52" fill="none" xmlns="http://www.w3.org/2000/svg">
<path fill-rule="evenodd" clip-rule="evenodd" d="M19.5269 0.597105C18.3927 1.58124 16.9599 3.10387 16.9599 3.32481C16.9599 3.69468 17.3448 4.06332 17.7309 4.06332C18.0415 4.06332 18.2507 3.90282 19.5929 2.63486C20.4244 1.84922 21.1321 1.09821 21.1653 0.965851C21.2885 0.474697 20.9233 0 20.4221 0C20.3082 0 19.9053 0.268687 19.5269 0.597105ZM26.1665 1.09202C25.5392 1.69268 23.7554 3.39541 22.2026 4.87598C20.6498 6.35656 19.1527 7.86507 18.8757 8.22822C18.2397 9.06222 17.4444 10.6775 17.1504 11.7328C16.9336 12.5106 16.9214 12.7716 16.8658 17.8062C16.8157 22.3287 16.7862 23.0805 16.6553 23.1632C16.4026 23.3228 16.328 23.2844 15.7939 22.7193C14.6539 21.5136 13.5377 19.5374 12.9105 17.6144C11.7536 14.0679 11.8762 11.5034 13.3186 9.06974C13.506 8.75361 14.2191 7.91271 14.9034 7.20102C16.2601 5.78993 16.3581 5.58534 15.8982 5.12537C15.4794 4.70644 15.2169 4.79269 14.2918 5.65299C12.3035 7.50211 11.3163 9.10793 10.8043 11.3265C9.9697 14.943 11.8296 20.8101 14.7675 23.8287C15.3275 24.4041 15.5868 24.5944 15.9351 24.6856C17.1574 25.0055 18.2342 24.1856 18.3559 22.8424L18.412 22.2241L18.7523 22.764C19.0584 23.2496 19.0926 23.3788 19.0926 24.0491C19.0926 25.1161 19.2696 26.6006 19.5438 27.8337C20.1042 30.3531 21.072 31.752 22.3388 31.8738C23.0234 31.9395 23.293 31.8534 23.7839 31.412C24.3542 30.8993 24.7589 29.9816 25.3398 27.8845C25.6029 26.9347 25.8412 26.0776 25.8694 25.9799C25.9351 25.7518 26.0618 25.7518 26.1275 25.9799C26.1558 26.0776 26.3944 26.9347 26.658 27.8845C27.3572 30.4043 27.8303 31.319 28.6592 31.7533C29.011 31.9377 29.767 31.9377 30.2081 31.7533C31.6454 31.1526 32.7029 28.3076 32.8732 24.5831C32.934 23.256 32.9465 23.1961 33.2613 22.7265L33.5865 22.2412L33.6405 22.837C33.7088 23.5904 33.9213 24.0013 34.4351 24.3736C34.9318 24.7335 35.4797 24.8379 36.0665 24.6843C36.4093 24.5946 36.6725 24.401 37.2294 23.8287C39.5917 21.4016 41.3552 16.9896 41.3741 13.4598C41.3877 10.9169 40.5841 8.75158 38.9396 6.89942C37.9832 5.82223 31.9614 0.0982308 31.7212 0.0378905C31.1766 -0.0988403 30.6644 0.448184 30.8444 0.973978C30.8882 1.10167 32.4723 2.70262 34.3648 4.53182C36.2573 6.36093 38.0103 8.13517 38.2603 8.47456C38.8683 9.29982 39.2452 10.0675 39.5709 11.144C39.937 12.3542 39.9596 14.1968 39.6262 15.6438C39.1225 17.8296 38.3289 19.7723 37.3202 21.2888C36.7523 22.1426 35.7696 23.2638 35.5918 23.261C35.1895 23.2546 35.1917 23.2798 35.1304 17.8062C35.0754 12.8865 35.0579 12.4994 34.8619 11.8344C34.1461 9.4071 33.3961 8.29527 30.8579 5.89842C29.9448 5.03598 28.7236 3.87712 28.1444 3.32309L27.0912 2.31569L27.7127 1.68841C28.4391 0.955388 28.5302 0.575163 28.0667 0.210582C27.5824 -0.170456 27.3942 -0.0830949 26.1665 1.09202ZM28.715 5.968C31.5593 8.66117 32.1011 9.2723 32.701 10.4639C33.0065 11.0707 33.4121 12.1555 33.4121 12.3659C33.4121 12.3866 33.2636 12.2904 33.082 12.1524C32.3634 11.6057 31.7371 11.4387 30.4162 11.4415C29.0523 11.4444 27.9101 11.6716 26.6986 12.1807L25.9985 12.475L25.2983 12.1807C24.0869 11.6716 22.9447 11.4444 21.5808 11.4415C20.2579 11.4387 19.6336 11.6056 18.9109 12.1554L18.5768 12.4096L18.644 12.122C18.8625 11.1864 19.5242 9.87935 20.2266 8.99609C20.7046 8.39492 25.8001 3.46855 25.953 3.45992C26.0117 3.45657 27.2546 4.58515 28.715 5.968ZM22.6471 13.0068C23.4732 13.1371 24.4537 13.452 25.2085 13.8295C25.5281 13.9893 25.8836 14.12 25.9985 14.12C26.1133 14.12 26.4689 13.9893 26.7885 13.8295C27.8959 13.2757 29.3742 12.9036 30.4739 12.9019C31.703 12.8998 32.7285 13.5795 33.2719 14.7566C33.5486 15.3556 33.5644 15.464 33.5639 16.7612C33.5635 17.7837 33.5171 18.2876 33.3815 18.7421C33.0401 19.8859 32.5713 20.9403 32.012 21.8225L31.4533 22.7038L31.3734 24.2276C31.2201 27.1526 30.6917 29.2256 29.8782 30.094C29.2071 30.8103 28.9121 30.3353 28.0333 27.1234C27.4034 24.8211 26.9054 24.0752 25.9985 24.0752C25.1261 24.0752 24.5275 24.9281 24.0227 26.8903C23.1864 30.141 22.7891 30.8095 22.1187 30.094C21.3052 29.2256 20.7768 27.1526 20.6235 24.2276L20.5437 22.7038L19.9849 21.8225C19.4256 20.9403 18.9568 19.8859 18.6154 18.7421C18.4798 18.2876 18.4334 17.7837 18.433 16.7612C18.4325 15.4698 18.4493 15.3536 18.7196 14.7684C19.4278 13.2358 20.6432 12.6906 22.6471 13.0068ZM3.77648 32.3154C2.06556 32.6001 0.673117 34.0151 0.189606 35.9604C0.105416 36.2991 0.0563639 36.9991 0.0648946 37.7381C0.0818545 39.2087 0.371697 40.4482 1.05507 41.9724L1.50426 42.9743L1.21929 43.1217C0.782594 43.3475 0.23683 44.0487 0.112118 44.5443C0.0419428 44.8232 0 46.2086 0 48.2507V51.5118L0.249321 51.7611C0.553889 52.0659 0.900806 52.0793 1.25575 51.7999L1.52335 51.5894V48.2582C1.52335 45.042 1.53066 44.9179 1.73387 44.6595C2.02301 44.2917 2.31183 44.3162 3.44246 44.8041C5.62125 45.7443 7.24108 46.1187 9.13034 46.1187C11.1445 46.1187 12.8908 45.7035 15.1331 44.6915C16.368 44.1342 16.8735 43.9913 17.6201 43.9885C18.291 43.986 18.7255 44.1147 20.0269 44.7016C22.4773 45.8066 24.1502 46.1679 26.4555 46.0896C28.6073 46.0167 29.2635 45.8347 32.8535 44.3152C33.5747 44.0099 34.6221 43.908 35.2952 44.0775C35.5542 44.1428 36.2625 44.4201 36.8691 44.6939C39.1024 45.7018 40.8544 46.1187 42.8568 46.1187C44.7796 46.1187 46.6852 45.6738 48.6837 44.7582C49.6504 44.3153 49.9765 44.2949 50.2631 44.6595C50.4661 44.9176 50.4736 45.043 50.4736 48.1708C50.4736 50.2629 50.5119 51.4858 50.5813 51.6158C50.842 52.1029 51.6475 52.0571 51.8822 51.5417C52.0377 51.2004 52.04 45.1606 51.8848 44.5443C51.7601 44.0487 51.2143 43.3475 50.7776 43.1217L50.4927 42.9743L50.9419 41.9724C51.6252 40.4482 51.9151 39.2087 51.932 37.7381C51.9406 36.9991 51.8915 36.2991 51.8073 35.9604C51.307 33.9475 49.9365 32.5989 48.0914 32.3041C46.8333 32.1031 44.9294 32.4293 43.2584 33.1322L42.7967 33.3264L42.2182 33.0705C41.4191 32.7169 40.2374 32.4203 39.138 32.2973C36.5472 32.0073 34.7241 33.1463 33.9411 35.5441C33.7341 36.178 33.6882 36.5247 33.6841 37.4841C33.6813 38.1266 33.7362 38.9266 33.8059 39.2618C33.9679 40.0399 34.4004 41.3865 34.6448 41.8735C34.7488 42.0809 34.8339 42.2979 34.8339 42.3561C34.8339 42.4156 34.6011 42.4623 34.3007 42.4632C33.507 42.4655 32.6757 42.6947 31.4306 43.2548C29.0032 44.3466 27.657 44.6458 25.5415 44.5641C23.8466 44.4984 22.7976 44.2437 21.0222 43.4663C19.2391 42.6855 18.8033 42.5466 17.9501 42.4874C17.5173 42.4572 17.1631 42.3917 17.1631 42.3415C17.1631 42.2914 17.2482 42.0809 17.3521 41.8735C17.5965 41.3865 18.029 40.0399 18.191 39.2618C18.2608 38.9266 18.3156 38.1266 18.3129 37.4841C18.3087 36.5247 18.2628 36.178 18.0558 35.5441C17.4555 33.706 16.2135 32.5817 14.4762 32.3041C13.3308 32.1211 11.4908 32.3983 10.0421 32.9721L9.1669 33.3187L8.45935 33.027C7.56169 32.6566 6.6293 32.4227 5.56235 32.2999C4.61087 32.1905 4.52211 32.1913 3.77648 32.3154ZM6.70273 34.0437C7.12165 34.1499 7.80045 34.396 8.21125 34.5906C8.62194 34.7853 9.0628 34.9446 9.19086 34.9446C9.31893 34.9446 9.75978 34.7853 10.1705 34.5906C11.7939 33.8213 13.9675 33.5493 14.9378 33.994C17.2506 35.054 17.4574 38.8496 15.3941 42.3703L14.9417 43.1423L13.9245 43.5646C12.2784 44.2478 11.2134 44.4987 9.67559 44.5654C8.1165 44.6329 7.20574 44.5156 5.78872 44.0646C4.09324 43.525 3.49913 43.2119 3.15729 42.6779C2.68262 41.9362 2.16427 40.7637 1.87148 39.7698C1.52436 38.5912 1.46962 36.8184 1.7551 36.0005C2.46803 33.9581 3.98975 33.3562 6.70273 34.0437ZM40.3179 34.0437C40.7369 34.1499 41.4157 34.396 41.8265 34.5906C42.2371 34.7853 42.678 34.9446 42.8061 34.9446C42.9341 34.9446 43.375 34.7853 43.7857 34.5906C44.8498 34.0864 45.9769 33.8183 47.129 33.7956C48.0286 33.7778 48.1448 33.799 48.6988 34.0821C49.3904 34.4357 49.8394 34.9654 50.1804 35.8302C50.3782 36.3318 50.4109 36.5955 50.4045 37.6365C50.396 39.0173 50.1466 40.0658 49.4983 41.4459C48.8464 42.8338 48.6185 43.1123 47.8559 43.4527C45.9087 44.3219 44.2763 44.6501 42.3213 44.5654C40.7704 44.4981 39.6636 44.2351 38.0518 43.5506C37.0554 43.1274 37.0379 43.1139 36.655 42.4784C35.7346 40.9502 35.2284 39.2757 35.2068 37.6873C35.1785 35.6076 35.9588 34.2794 37.4532 33.8637C38.0464 33.6987 39.2569 33.7748 40.3179 34.0437Z" fill="#F4F4F4"/>
</svg>
