<svg width="46" height="47" viewBox="0 0 46 47" fill="none" xmlns="http://www.w3.org/2000/svg">
<path fill-rule="evenodd" clip-rule="evenodd" d="M0.262613 0.258967L0 0.527392V5.84032C0 10.5446 0.0163516 11.177 0.142672 11.3613C0.221105 11.4758 0.83393 12.0428 1.50443 12.6215C2.86763 13.7978 3.07257 13.8802 3.62546 13.4747L3.88179 13.2867L5.24921 14.6739C6.92605 16.3751 6.89596 16.3661 7.82863 15.4456L8.45232 14.8303L10.2457 16.6616C11.2321 17.6688 12.0391 18.5393 12.0391 18.5958C12.0391 18.6525 11.8701 19.0661 11.6634 19.5151C11.3236 20.2536 11.2872 20.4014 11.2816 21.0679C11.2761 21.7217 11.3085 21.8731 11.5702 22.4164C11.9334 23.1707 12.5704 23.7813 13.2787 24.0544C13.6942 24.2146 13.9269 24.2444 14.5098 24.2122C15.1219 24.1783 15.4251 24.0932 16.5537 23.6383C17.2826 23.3446 17.8789 23.0697 17.8789 23.0274C17.8789 22.8919 17.4127 21.7548 17.3378 21.7075C17.2981 21.6824 16.7002 21.8894 16.0093 22.1675C14.6844 22.7005 14.2451 22.7735 13.7165 22.5477C13.12 22.2929 12.6744 21.4382 12.8085 20.8057C12.8424 20.6458 13.0009 20.2463 13.1609 19.918C13.6314 18.9524 13.6934 18.6846 13.5614 18.1883C13.4607 17.8098 13.22 17.5252 11.4899 15.7397L9.53242 13.7194L10.1119 13.1096C10.6176 12.5775 10.6914 12.4555 10.6914 12.152C10.6914 11.8273 10.6031 11.7128 9.35615 10.4202L8.02089 9.03597L8.2331 8.72393C8.47182 8.37295 8.48987 8.21151 8.32483 7.90745C8.15745 7.59927 1.43471 0.317923 1.15413 0.140964C0.807605 -0.0775961 0.559816 -0.0448122 0.262613 0.258967ZM3.87864 5.29713C5.13026 6.65 6.25357 7.87054 6.37495 8.00929L6.5957 8.26165L4.84851 10.0492C3.88754 11.0324 3.07005 11.8368 3.03187 11.8368C2.99368 11.8368 2.63961 11.558 2.24511 11.217L1.52779 10.5971L1.52761 6.71722C1.52743 4.58333 1.54441 2.83733 1.56517 2.83733C1.58601 2.83733 2.62712 3.94427 3.87864 5.29713ZM14.5506 3.2075C12.5984 3.4864 10.6883 4.41077 9.21761 5.78825L8.60236 6.3644L9.16981 6.88316L9.73718 7.40192L10.4274 6.79555C11.7143 5.66483 13.0289 5.05213 14.7173 4.7961C16.0946 4.58718 17.1661 4.71621 18.7313 5.27969C20.2894 5.84041 21.074 6.03721 22.124 6.13023C23.7913 6.27808 25.0883 6.06384 27.2676 5.2807C28.7448 4.74982 29.8664 4.59609 31.0912 4.75661C34.2845 5.17518 36.8617 7.29714 37.8767 10.3435C38.2724 11.5311 38.3726 12.5865 38.2622 14.4028C38.0426 18.0127 37.1009 21.1163 35.2238 24.4157L34.5173 25.6575L34.2391 27.7697C34.0862 28.9313 33.9402 30.0095 33.9147 30.1657L33.8683 30.4497L34.6035 30.5559C35.0078 30.6144 35.3532 30.6473 35.371 30.6291C35.3889 30.6109 35.5397 29.5881 35.7062 28.3564L36.009 26.1167L36.3927 25.4739C38.4453 22.0355 39.5498 18.4501 39.8006 14.4106C39.8621 13.4203 39.8611 12.6639 39.7973 12.0286C39.2093 6.17247 33.8864 2.17816 28.2347 3.35205C27.8771 3.42625 27.0833 3.66877 26.4708 3.89091C25.0142 4.41904 24.1536 4.59315 23 4.59315C21.841 4.59315 20.984 4.41867 19.508 3.88228C18.8838 3.65537 18.09 3.40733 17.7441 3.33102C16.9635 3.15883 15.3329 3.09574 14.5506 3.2075ZM7.93024 11.1726L8.89462 12.1613L7.90625 13.1684L6.91797 14.1754L5.92969 13.1684L4.94132 12.1613L5.9057 11.1726C6.43605 10.6288 6.89155 10.1839 6.91797 10.1839C6.94438 10.1839 7.39989 10.6288 7.93024 11.1726ZM7.47653 17.9943C7.11661 18.0793 6.79731 18.1742 6.76694 18.2052C6.68437 18.2896 7.15381 19.9976 7.59027 21.2007C8.09286 22.5864 8.63884 23.7609 9.38427 25.0606L9.99 26.1167L10.9711 33.4632C11.5233 37.5983 12.0301 41.0773 12.1305 41.4216C12.8712 43.9612 16.1043 44.6954 17.8792 42.7273C18.6031 41.9245 18.5924 41.971 19.9083 33.9162C20.7471 28.7819 21.1704 26.4082 21.2898 26.1688C21.6146 25.5181 22.3197 25.0616 23 25.0616C23.799 25.0616 24.6256 25.6971 24.8369 26.4738C24.9072 26.732 25.2949 28.9887 25.6985 31.4888C26.102 33.989 26.4584 36.0619 26.4905 36.0954C26.5529 36.1604 27.8202 35.9594 27.907 35.8707C27.9557 35.8209 26.7349 28.1067 26.4443 26.6278C26.0903 24.8264 24.9069 23.6892 23.2188 23.5281C21.7788 23.3907 20.179 24.463 19.7292 25.8672C19.6529 26.1054 19.0636 29.5443 18.4198 33.5091C17.7759 37.474 17.1855 40.8932 17.1077 41.1072C16.8338 41.8614 15.8251 42.4415 15.0752 42.2761C14.3605 42.1184 13.775 41.6161 13.5702 40.9853C13.5225 40.8382 13.0335 37.3293 12.4835 33.1877L11.4836 25.6575L10.7826 24.4178C9.67599 22.4609 8.87791 20.5477 8.44468 18.8134C8.33822 18.3873 8.22403 17.9939 8.19096 17.9392C8.14892 17.8696 7.93473 17.8862 7.47653 17.9943ZM39.3281 28.4372C33.9631 33.9236 33.7812 34.1208 33.7812 34.4542C33.7812 34.7312 33.855 34.8807 34.1572 35.2157L34.5331 35.6327L33.0408 37.1581L31.5484 38.6835L30.8253 38.3456C29.7651 37.8503 29.1965 37.7168 27.9295 37.666C27.0762 37.6318 26.6082 37.6589 26.0428 37.7754C24.0591 38.1839 22.5426 39.2586 21.846 40.7495C21.5389 41.407 21.5176 41.5095 21.5176 42.3299C21.5176 43.158 21.5364 43.2459 21.8536 43.9019C22.8841 46.033 25.8344 47.3406 28.6686 46.9223C30.828 46.6035 32.5996 45.4667 33.3434 43.9223C33.6294 43.3285 33.6465 43.2386 33.6465 42.3269C33.6465 41.2888 33.5265 40.8756 32.9971 40.0921L32.7604 39.7418L34.2122 38.2579L35.664 36.7739L36.0029 37.111C36.3819 37.4879 36.6787 37.6293 36.9717 37.5721C37.0824 37.5504 39.1026 35.5553 41.5844 33.0167L46 28.5V25.8578V23.2156L45.7794 22.9903C45.6226 22.8298 45.4603 22.7648 45.217 22.7648C44.8844 22.7648 44.7215 22.9218 39.3281 28.4372ZM40.6359 31.7832L36.7936 35.7112L36.1848 35.0937L35.5761 34.4762L40.0019 29.9515L44.4277 25.4268L44.453 26.641L44.4781 27.8551L40.6359 31.7832ZM29.1304 39.3801C31.4306 39.9814 32.658 41.6194 31.9808 43.1842C31.6013 44.0612 30.5042 44.8658 29.1992 45.2243C28.4049 45.4425 26.8379 45.4469 26.0547 45.2331C24.222 44.7329 22.9974 43.5326 23.0009 42.2398C23.0035 41.269 24.0567 40.091 25.3592 39.6019C26.5257 39.1639 27.9768 39.0786 29.1304 39.3801Z" fill="#F4F4F4"/>
</svg>
