<svg width="47" height="43" viewBox="0 0 47 43" fill="none" xmlns="http://www.w3.org/2000/svg">
<path fill-rule="evenodd" clip-rule="evenodd" d="M40.9074 1.7821C39.1924 3.457 39.0672 3.60136 39.0672 3.90532C39.0672 4.20883 39.1924 4.35409 40.8755 6.00356C42.5531 7.64761 42.7077 7.77565 43.0139 7.77565C43.3199 7.77565 43.4744 7.64797 45.1354 6.02186C46.1207 5.05723 46.9509 4.19413 46.9801 4.10378C47.0095 4.01343 47.0059 3.83084 46.9722 3.69802C46.9041 3.4294 43.8182 0.323974 43.4101 0.113249C42.9063 -0.146709 42.8315 -0.0968457 40.9074 1.7821ZM44.051 4.92035L43.0174 5.93629L41.9808 4.92324L40.9441 3.91028L41.9778 2.89443L43.0115 1.87849L44.0481 2.89154L45.0847 3.90451L44.051 4.92035ZM11.1791 3.9495C9.0368 4.19197 7.16708 5.68851 6.50028 7.6945C6.31544 8.25058 4.76204 15.546 4.55152 16.8467C4.45574 17.4387 4.38039 18.6066 4.35039 19.9639C4.30853 21.8559 4.32868 22.3398 4.50736 23.7357L4.71226 25.3371L4.49531 25.4778C4.37606 25.5551 4.00112 25.896 3.66225 26.2352C2.9225 26.9758 2.28128 28.1617 2.05954 29.1999C1.74349 30.6793 2.04298 32.3838 2.85413 33.7219L3.24195 34.3616L1.62093 35.952C0.0310993 37.5119 0 37.5497 0 37.9247C0 38.4854 0.281641 38.726 0.87409 38.6714C0.975392 38.6622 1.80265 37.9284 2.71428 37.0393L4.37045 35.424L4.64648 35.6079C5.71388 36.3187 6.98435 36.7025 8.32161 36.7183L9.23646 36.729L10.2078 38.7842C11.285 41.0634 11.6569 41.6095 12.5135 42.1701C13.5936 42.8769 14.7676 43.1307 15.9636 42.9158C16.6136 42.7989 17.6765 42.3004 18.1111 41.9084C18.2834 41.7531 19.0016 40.6348 19.7454 39.3636C20.4753 38.1165 21.2065 36.9576 21.3703 36.7884C21.9885 36.1502 23.1154 35.9309 23.9922 36.2784C24.6076 36.5222 25.0736 37.1361 26.346 39.3796C27.6379 41.6577 27.8621 41.9236 28.9356 42.4504C30.4365 43.1871 32.0999 43.1831 33.6755 42.4389C34.4808 42.0586 35.546 41.0061 35.9411 40.2005C36.3062 39.4561 39.7453 31.3616 40.232 30.1016C41.879 25.8366 42.3353 21.3254 41.577 16.8016C41.3228 15.2847 39.8668 8.44579 39.6501 7.75068C39.3728 6.86125 39.0264 6.31176 38.2759 5.57084C37.5126 4.8172 36.6997 4.34616 35.6997 4.0779C34.8666 3.85446 32.2268 3.84896 31.4127 4.06907C30.1693 4.40513 29.9557 4.54209 26.7083 7.0864C25.432 8.08638 24.2519 8.97635 24.0861 9.06417C23.6372 9.30168 22.5213 9.2841 22.0363 9.03171C21.8338 8.92649 20.5624 7.97331 19.2108 6.91364C16.5817 4.85237 16.0697 4.50549 15.2308 4.21649C14.3108 3.89955 12.61 3.78747 11.1791 3.9495ZM14.4564 5.61367C15.2357 5.84549 15.6244 6.10698 18.2404 8.15915C19.9303 9.48481 21.0495 10.2969 21.4382 10.4794C21.9957 10.7412 22.1049 10.7603 23.0484 10.7603C24.5476 10.7603 24.6155 10.7244 27.7447 8.276C29.2033 7.13482 30.5238 6.12457 30.679 6.03115C31.3839 5.60699 32.0281 5.48526 33.5575 5.48725C34.8474 5.48896 35.0787 5.51304 35.6279 5.70302C36.6989 6.07344 37.54 6.83402 37.9949 7.84337C38.1497 8.18674 39.7452 15.4508 40.0121 17.027C40.3507 19.0277 40.4172 21.9978 40.1652 23.8698C39.9018 25.8252 39.4914 27.534 38.9065 29.1097C38.3263 30.6731 34.5669 39.4492 34.3008 39.862C33.7793 40.6707 32.7458 41.2859 31.6821 41.421C30.7777 41.5359 29.3705 41.0667 28.8697 40.4835C28.7536 40.3482 28.1418 39.331 27.5102 38.223C26.8785 37.115 26.206 36.0351 26.0158 35.8232C24.4823 34.116 21.6108 34.1006 20.1109 35.7914C19.9174 36.0096 19.1535 37.2224 18.4134 38.4868L17.0678 40.7856L16.4354 41.1005C15.8768 41.3787 15.7209 41.4155 15.1007 41.4155C14.525 41.4155 14.3074 41.3717 13.8929 41.1728C12.9842 40.7368 12.6975 40.3519 11.6877 38.213L10.7773 36.2846L11.2452 36.0338C13.697 34.7199 15.0308 31.9907 14.4988 29.3768C14.4025 28.9039 14.1836 28.288 13.9231 27.7572C13.143 26.1674 11.5616 24.9128 9.753 24.4487C9.0104 24.2582 7.42544 24.2546 6.74144 24.4421C6.3067 24.5612 6.25618 24.56 6.21855 24.4298C5.89909 23.3239 5.8311 18.9465 6.10639 17.2074C6.19674 16.637 6.64318 14.4054 7.09853 12.2481C8.01034 7.92795 8.13943 7.53175 8.89281 6.7425C9.3846 6.22727 9.92534 5.88661 10.6203 5.65415C11.2345 5.44866 13.8103 5.42151 14.4564 5.61367ZM16.9853 14.145C16.6732 14.2366 16.2318 14.6255 16.0475 14.9712C15.7481 15.5327 15.9598 16.4153 16.5 16.8576C17.4608 17.6443 19.046 16.9142 19.046 15.6849C19.046 14.5783 18.0488 13.8332 16.9853 14.145ZM28.0096 14.2224C26.8663 14.7313 26.7501 16.3044 27.809 16.9374C29.2734 17.8128 30.9093 16.1481 29.9607 14.7481C29.73 14.4076 29.0638 14.0506 28.6644 14.0534C28.5107 14.0545 28.2161 14.1306 28.0096 14.2224ZM11.5472 18.8806C11.1951 19.0584 9.78327 20.4177 9.60248 20.7531C9.32958 21.2594 9.7311 21.8962 10.3232 21.8962C10.5401 21.8962 10.7778 21.7195 11.5442 20.9889C12.0675 20.4899 12.546 19.9624 12.6077 19.8167C12.7658 19.4427 12.579 19.0284 12.1784 18.8644C11.8124 18.7145 11.8798 18.7127 11.5472 18.8806ZM15.6777 18.8108C15.571 18.8266 15.0431 19.2778 14.5046 19.8133C13.6694 20.644 13.5254 20.8298 13.5254 21.0771C13.5254 21.2366 13.5652 21.4399 13.6139 21.5291C13.731 21.7435 14.2048 21.9296 14.4685 21.8648C14.5843 21.8363 15.1233 21.3711 15.6664 20.8311C16.4816 20.0205 16.6537 19.8018 16.6537 19.5774C16.6537 19.0731 16.2174 18.7305 15.6777 18.8108ZM33.2557 18.8083C33.1514 18.8249 32.6209 19.276 32.0769 19.8108C31.2592 20.6147 31.0864 20.8319 31.0796 21.0643C31.0638 21.6104 31.5241 21.9923 32.044 21.8643C32.1589 21.8361 32.6971 21.3711 33.2402 20.8311C34.0422 20.0335 34.2275 19.7996 34.2275 19.5853C34.2275 19.1003 33.7618 18.7279 33.2557 18.8083ZM37.1258 18.8689C36.974 18.9349 36.4461 19.394 35.9527 19.8889C35.1686 20.6755 35.0556 20.828 35.0556 21.1001C35.0556 21.6629 35.6195 22.0253 36.1564 21.8074C36.3044 21.7473 36.8212 21.2985 37.3047 20.8102C38.1089 19.998 38.1839 19.8923 38.1839 19.5723C38.1839 18.9956 37.6502 18.6407 37.1258 18.8689ZM17.0549 22.0278C16.7431 22.2419 16.6134 22.646 16.7604 22.9454C17.0631 23.5619 19.1796 24.7111 20.7481 25.1107C21.5274 25.3093 21.8725 25.3458 23.0024 25.3495C24.9347 25.3558 26.4792 24.9489 28.0391 24.0227C29.0971 23.3945 29.3466 23.1684 29.4106 22.7795C29.4583 22.4905 29.428 22.4086 29.1854 22.1708C29.0257 22.0143 28.8083 21.8962 28.6798 21.8962C28.5559 21.8962 28.1387 22.0982 27.7527 22.3451C26.0872 23.4107 24.8735 23.7853 23.0774 23.7882C21.3733 23.7909 20.0647 23.4006 18.5467 22.4368C17.6682 21.8791 17.3847 21.8014 17.0549 22.0278ZM9.69329 26.1265C11.6757 26.806 12.8845 28.4536 12.907 30.5073C12.9218 31.852 12.4731 32.925 11.5038 33.8628C11.0116 34.339 10.1762 34.8869 10.0952 34.7865C9.98431 34.6491 8.0846 30.4889 7.68813 29.5155C7.1403 28.1702 6.70409 26.8088 6.6843 26.3828C6.67161 26.109 6.69755 26.0826 7.08473 25.978C7.66807 25.8202 9.02493 25.8974 9.69329 26.1265ZM5.42994 27.9601C5.9071 29.4723 6.31599 30.4739 7.41872 32.8323C7.99415 34.0628 8.46487 35.0879 8.46487 35.1103C8.46487 35.2025 7.54717 35.1418 7.05933 35.0172C5.33195 34.5763 3.89053 33.0132 3.58211 31.2466C3.35641 29.9539 3.81756 28.3822 4.6969 27.4473C4.90981 27.221 5.09613 27.0358 5.11113 27.0358C5.12603 27.0358 5.26947 27.4518 5.42994 27.9601Z" fill="#F8F4F4"/>
</svg>
