<svg width="40" height="43" viewBox="0 0 40 43" fill="none" xmlns="http://www.w3.org/2000/svg">
<path d="M7.46244 0.27396C7.61105 0.422565 7.89175 0.860126 8.09815 1.2399C8.61001 2.19758 9.32002 3.147 10.0878 3.89003L10.7318 4.51748L11.3345 4.4019C12.1765 4.23678 13.9516 4.30283 14.8019 4.52574C15.7596 4.78167 16.5604 5.14493 17.4686 5.73935C18.5831 6.46587 18.9051 6.56494 20.0279 6.55668C21.1094 6.55668 21.3736 6.46587 22.5459 5.70633C23.4045 5.15318 24.2054 4.78992 25.1713 4.52574C26.096 4.26155 28.325 4.26981 29.258 4.52574C30.0505 4.74039 31.1073 5.23574 31.7843 5.68982C34.3601 7.44006 36.0856 10.9405 36.2424 14.7383L36.292 15.9766L36.6965 16.6371C37.2744 17.57 38.0422 18.3048 38.8348 18.7011C39.5118 19.0396 39.6439 19.1799 39.6521 19.5679C39.6604 19.9312 39.4457 20.1871 38.9256 20.4266C38.6697 20.5421 38.2816 20.7733 38.0587 20.9384C37.5881 21.2769 36.8286 22.2263 36.5231 22.829C36.4076 23.0519 36.2424 23.3244 36.1516 23.4234C35.7966 23.8032 35.1939 23.7289 34.9463 23.2748C34.872 23.1345 34.6903 22.8373 34.55 22.6061L34.294 22.1933L33.7904 23.0106C33.518 23.4647 32.9814 24.2325 32.6181 24.7279C32.2466 25.215 31.9081 25.7103 31.8586 25.8342C31.809 25.958 31.8008 26.3212 31.8255 26.7175C31.8751 27.312 31.8668 27.4028 31.71 27.6009C31.4788 27.8981 31.0743 27.9064 30.8018 27.6174C30.6284 27.4358 30.6119 27.3367 30.6037 26.4864C30.5954 25.4048 30.645 25.281 31.4953 24.1582C32.0897 23.3822 32.8162 22.2841 33.1878 21.6237L33.4437 21.1613L33.1465 20.9302C32.9731 20.7981 32.5851 20.5669 32.2796 20.4183C31.6769 20.1211 31.5448 19.9725 31.5448 19.5927C31.5448 19.2295 31.7512 19.0148 32.3869 18.6928C33.3116 18.2222 34.162 17.3223 34.8059 16.1252C35.0371 15.6959 35.0371 15.6794 34.9875 14.5979C34.905 12.6 34.1702 10.3048 33.0969 8.72797C32.42 7.72902 31.2972 6.73831 30.2652 6.20993C29.0516 5.599 27.2353 5.36784 25.84 5.65679C25.0475 5.81365 24.1806 6.15215 23.5036 6.56494C23.2477 6.7218 22.8349 6.97773 22.579 7.13459C21.8442 7.58867 21.2167 7.77029 20.2343 7.81983C19.5821 7.85286 19.2271 7.82809 18.8308 7.72902C18.1538 7.55564 17.3612 7.18413 16.8494 6.81261C16.3458 6.4411 15.2312 5.92098 14.579 5.7476C14.3066 5.6733 13.7782 5.59074 13.3984 5.55772L12.7049 5.50819L12.9609 5.76412C13.159 5.96226 13.2168 6.0861 13.2168 6.35028C13.2168 6.80436 12.9774 7.05204 12.2261 7.38227C11.8876 7.53088 11.3675 7.80332 11.0785 7.99321C10.4758 8.38949 10.352 8.406 10.0465 8.16658C9.88967 8.04274 9.83188 7.9189 9.83188 7.72076C9.83188 7.40704 10.1456 7.08506 10.8721 6.68052C11.1198 6.54017 11.3179 6.39982 11.3179 6.37505C11.3179 6.34203 11.0538 6.15215 10.7235 5.954C9.34478 5.10365 8.15594 3.79922 6.97535 1.85083C6.90104 1.72699 6.84325 1.77653 6.57081 2.23886C5.64615 3.77445 4.48207 5.02935 3.20241 5.86319L2.40159 6.39156L2.84741 6.63099C4.01149 7.25018 5.27464 8.51332 6.26534 10.0324C6.56255 10.4865 6.82674 10.891 6.85976 10.924C6.89279 10.9653 7.06616 10.7589 7.23954 10.47C7.61105 9.85077 7.92477 9.41321 8.09815 9.27286C8.39536 9.02519 8.98978 9.26461 9.01455 9.63612C9.03932 9.92508 8.98978 10.0407 8.64303 10.569C8.44489 10.8662 8.13117 11.3946 7.94128 11.7414C7.53675 12.4761 7.28082 12.7156 6.90104 12.7156C6.53778 12.7156 6.25708 12.4679 5.94336 11.89C5.79476 11.6175 5.65441 11.3946 5.62964 11.3946C5.55534 11.3946 5.2251 12.6248 5.08475 13.4173C4.92789 14.3172 4.92789 16.1335 5.09301 17.0994C5.45626 19.2129 6.52127 21.4916 8.29629 23.927C9.20443 25.1654 9.32827 25.3966 9.38606 25.9085C9.44386 26.3625 9.16315 29.5658 8.90722 31.539C8.56048 34.1561 8.67606 36.2366 9.23746 37.6401C9.72455 38.8537 10.9712 40.3562 11.8628 40.7938C12.449 41.0828 13.1507 41.0745 13.6131 40.7608C14.0424 40.4801 14.3231 40.059 14.5047 39.4233C14.6285 39.0023 14.6451 38.5812 14.6285 36.6989C14.612 33.7928 14.7441 32.8104 15.3551 31.4977C16.1807 29.7227 17.7658 28.6742 19.7389 28.5834C20.7544 28.5421 21.4562 28.6824 22.2405 29.0705C23.7265 29.8052 24.5686 30.9115 25.0805 32.8186C25.2951 33.6277 25.3034 33.6937 25.3199 36.3274C25.3282 38.8454 25.3447 39.0436 25.5098 39.5719C25.9308 40.8764 26.9628 41.3469 28.1269 40.7773C28.6718 40.5048 29.4561 39.7536 29.968 39.0105C31.2559 37.153 31.5283 35.2624 31.0495 31.5225C30.9587 30.829 30.8844 30.185 30.8844 30.0859C30.8844 29.8135 31.1816 29.5576 31.5036 29.5576C32.0072 29.5576 32.0732 29.7144 32.2714 31.3573C32.6099 34.1065 32.5933 35.5926 32.1971 37.1282C31.5448 39.671 29.3405 42.0735 27.4912 42.2386C26.9216 42.2964 26.2033 42.1478 25.774 41.8836C25.3447 41.6111 24.8411 41.0662 24.6016 40.6039C24.1476 39.704 24.0898 39.2747 24.0733 36.4099C24.0568 33.6607 24.0237 33.3305 23.6192 32.2655C23.2147 31.1757 22.2735 30.3088 21.1259 29.9621C20.6636 29.8217 20.4077 29.797 19.7967 29.8217C17.6502 29.9291 16.3293 31.3161 15.9495 33.8589C15.8917 34.2304 15.8587 35.3614 15.8669 36.7071C15.8834 38.4904 15.8587 39.0436 15.7596 39.5141C15.4872 40.6947 14.8515 41.5699 13.9351 41.9909C13.4975 42.1973 13.3241 42.2303 12.7132 42.2303C12.061 42.2303 11.9619 42.2056 11.3675 41.9166C10.2117 41.3387 9.0806 40.1003 8.33757 38.5977C7.42117 36.7402 7.25605 34.8743 7.68535 31.4316C7.92477 29.5245 8.19722 26.2552 8.14768 25.9745C8.12291 25.8507 7.80094 25.3471 7.44593 24.86C5.33243 21.9869 4.15184 19.4441 3.81335 16.9756C3.69776 16.15 3.69776 14.2759 3.81335 13.5164C3.93718 12.6991 4.25916 11.4359 4.53986 10.6516L4.77928 10.0076L4.34172 9.49577C3.5409 8.53809 2.43461 7.71251 1.43565 7.30797C0.841228 7.06029 0.585297 6.78785 0.585297 6.37505C0.585297 5.92098 0.766926 5.72284 1.53472 5.37609C3.27671 4.56702 4.55637 3.29561 5.72046 1.21513C6.00115 0.728035 6.31488 0.249191 6.43046 0.166634C6.75244 -0.0892982 7.15697 -0.0480194 7.46244 0.27396ZM35.2352 17.7682C34.8802 18.2718 34.0299 19.1386 33.6088 19.4358L33.4024 19.5762L33.6501 19.7496C34.0464 20.022 35.1196 21.1531 35.3425 21.5328C35.4581 21.7227 35.5655 21.8796 35.5902 21.8796C35.615 21.8796 35.7141 21.7557 35.8049 21.6071C36.1681 21.0457 36.8286 20.3275 37.3157 19.956L37.8193 19.5845L37.4148 19.2872C36.9194 18.924 36.1929 18.1479 35.8709 17.6361C35.7388 17.4297 35.6232 17.2646 35.615 17.2563C35.6067 17.2563 35.4416 17.4875 35.2352 17.7682Z" fill="#F4F4F4"/>
</svg>
