<svg width="60" height="44" viewBox="0 0 60 44" fill="none" xmlns="http://www.w3.org/2000/svg">
<path fill-rule="evenodd" clip-rule="evenodd" d="M53.5703 0.0242157C52.8492 0.125473 51.8942 0.452684 51.1062 0.868421C49.5352 1.69692 47.6719 3.81392 46.841 5.71412L46.529 6.42756L46.0592 5.48615C44.8634 3.08929 43.0234 1.30581 40.9227 0.507418C40.305 0.272658 40.0051 0.241603 38.391 0.244935C36.0992 0.249575 35.3433 0.446021 33.0775 1.62517C30.4968 2.96817 29.5114 2.96817 26.9307 1.62517C24.6649 0.446021 23.909 0.249575 21.6171 0.244935C20.003 0.241603 19.7031 0.272658 19.0854 0.507418C16.9694 1.31164 15.1371 3.09608 13.9273 5.53077L13.4404 6.51073L12.9164 5.45925C11.6167 2.85096 9.50397 0.952544 7.23984 0.358566C6.45348 0.152245 4.49411 0.125235 3.47693 0.306688C2.50038 0.480884 1.03195 0.979197 0.568778 1.29368C-0.170811 1.79568 -0.144587 2.64167 0.622053 3.0129C0.906265 3.15045 1.02994 3.12737 1.77863 2.79635C2.98812 2.26163 4.08622 2.0609 5.55194 2.10635C6.70473 2.14217 6.85841 2.17667 7.73007 2.59586C10.7274 4.03737 12.7058 8.25578 12.4706 12.7037C12.43 13.472 12.3659 14.1815 12.3282 14.2803C12.2695 14.4345 11.8008 14.4599 9.02402 14.4599H5.78819V13.1511C5.78819 11.2325 5.71944 11.1939 2.42785 11.2661L0.569841 11.3068L0.284921 11.6407C-0.0646151 12.0501 -0.0771365 12.4253 0.244876 12.8376C0.489161 13.1504 0.493414 13.1511 2.19396 13.1511H3.89817V15.4118V17.6726H2.36808C0.721988 17.6726 0.338904 17.7675 0.13112 18.2267C-0.0707577 18.673 -0.0268146 18.9652 0.29 19.2842C0.578346 19.5748 0.592521 19.5763 2.92717 19.5763C5.88328 19.5763 5.76362 19.653 5.81347 17.729L5.84725 16.4232L8.7391 16.3913C10.3297 16.3737 11.6937 16.3836 11.7705 16.4132C12.0286 16.513 11.112 19.093 10.0907 21.1414C8.37114 24.5902 7.30257 27.8493 6.73686 31.3708C6.6068 32.1806 6.36665 34.2502 6.20317 35.9696C6.03968 37.6892 5.85162 39.3403 5.78523 39.6387C5.50185 40.9127 4.93 41.4697 3.90608 41.4697C3.20642 41.4697 2.69328 41.2136 2.23294 40.6346C1.49453 39.7059 1.32585 39.566 0.94501 39.566C0.469079 39.566 0 40.0292 0 40.4994C0 40.9456 0.879214 42.167 1.55596 42.6608C2.27618 43.1862 3.17724 43.4183 4.18758 43.3385C5.16023 43.2617 5.7342 43.0426 6.31987 42.5246C7.36789 41.5978 7.67726 40.4751 8.09437 36.0868C8.44839 32.3609 8.70036 30.7551 9.28402 28.5043C9.78535 26.5707 9.92698 26.2539 10.5872 25.5889C11.4423 24.7276 12.0138 24.5143 13.4664 24.5143C14.6201 24.5143 14.7508 24.5389 15.3385 24.8667C16.3565 25.4347 16.9114 26.1542 17.2825 27.3875C18.0684 29.9999 18.4226 32.0524 18.7787 36.0559C18.9125 37.5611 19.1023 39.2063 19.2005 39.712C19.5429 41.4776 20.1418 42.4383 21.2382 42.9805C21.8335 43.275 22.0438 43.3139 23.0346 43.3134C24.0183 43.313 24.2297 43.2742 24.7477 42.9992C25.5285 42.5846 26.4647 41.5708 26.9386 40.6263C27.7546 38.9998 28.1213 37.595 28.9386 32.9623C29.4283 30.1862 29.8113 28.6193 29.9999 28.6193C30.2005 28.6193 30.5789 30.1178 31.0064 32.6053C31.7919 37.1777 32.2556 38.9912 33.0413 40.5662C33.5385 41.5628 34.462 42.5754 35.2605 42.9992C35.7784 43.2742 35.9899 43.313 36.9735 43.3134C37.9644 43.3139 38.1746 43.275 38.77 42.9805C39.8663 42.4383 40.4652 41.4776 40.8077 39.712C40.9058 39.2063 41.0957 37.5611 41.2295 36.0559C41.5855 32.0524 41.9398 29.9999 42.7257 27.3875C43.0967 26.1542 43.6517 25.4347 44.6697 24.8667C45.2574 24.5389 45.388 24.5143 46.5418 24.5143C47.9944 24.5143 48.5658 24.7276 49.421 25.5889C50.0846 26.2574 50.2415 26.6098 50.7259 28.5203C51.2793 30.7024 51.575 32.6055 51.8599 35.8179C51.9933 37.3231 52.1774 38.9697 52.2689 39.4772C52.6888 41.8064 53.8009 43.008 55.7232 43.2104C57.2048 43.3664 58.3614 42.7291 59.388 41.191C60.0959 40.1303 60.167 39.7152 59.7182 39.2631C59.1937 38.7347 58.5076 38.916 58.1178 39.6857C57.5258 40.8545 56.7449 41.4174 55.8617 41.312C54.4149 41.1394 54.1905 40.5425 53.7522 35.6989C53.3946 31.7472 53.022 29.5602 52.2522 26.894C51.7856 25.2784 51.2657 23.9738 50.0149 21.2799C48.7495 18.5546 47.9991 16.5055 48.2331 16.415C48.3123 16.3844 49.6785 16.3737 51.2691 16.3913L54.1609 16.4232L54.1947 17.729C54.2445 19.653 54.1249 19.5763 57.081 19.5763C59.4156 19.5763 59.4298 19.5748 59.7182 19.2842C60.035 18.9652 60.0789 18.673 59.877 18.2267C59.6693 17.7675 59.2862 17.6726 57.6401 17.6726H56.11V15.4118V13.1511H57.8142C59.5147 13.1511 59.519 13.1504 59.7633 12.8376C60.0853 12.4253 60.0728 12.0501 59.7232 11.6407L59.4383 11.3068L57.5803 11.2661C54.2887 11.1939 54.22 11.2325 54.22 13.1511V14.4599H50.9785C48.6658 14.4599 47.713 14.4208 47.6531 14.3233C47.459 14.0068 47.4546 10.8246 47.6468 9.68897C48.3544 5.50756 50.6846 2.51566 53.6657 1.96059C54.9455 1.72226 56.8806 2.05554 58.503 2.79361C58.993 3.01647 59.1061 3.02944 59.3847 2.89463C59.8471 2.6707 60.0885 2.18488 59.9437 1.76998C59.738 1.18088 58.5231 0.563341 56.9369 0.241722C56.0988 0.0718104 54.1348 -0.0551479 53.5703 0.0242157ZM24.2418 2.48282C24.7432 2.65464 25.6666 3.08477 26.2937 3.43875L27.4339 4.08235L26.9471 4.15481C26.6793 4.19455 26.2524 4.25785 25.9983 4.29533C25.4993 4.36899 25.1973 4.62243 25.1583 5.00056C25.0411 6.1345 25.7643 6.37295 27.8868 5.9001C29.7245 5.49067 31.6153 4.69655 33.7306 3.44577C35.3196 2.50614 36.3804 2.17846 38.0473 2.11194C39.6741 2.04721 40.3526 2.20487 41.4088 2.89344C43.2532 4.0958 44.5446 6.07548 45.2404 8.76754C45.5287 9.88279 45.6826 12.3644 45.5443 13.6658L45.4598 14.4599H40.1535H34.8473V13.2027C34.8473 12.5113 34.7935 11.8444 34.7277 11.7206C34.5124 11.3154 33.8444 11.2486 30.0041 11.2486C26.1638 11.2486 25.4958 11.3154 25.2804 11.7206C25.2146 11.8444 25.1609 12.5113 25.1609 13.2027V14.4599H19.8547H14.5483L14.4639 13.6658C14.3327 12.4315 14.4831 9.88696 14.7511 8.80811C15.5421 5.62381 17.4628 3.12844 19.761 2.2997C20.6983 1.96166 22.9941 2.05554 24.2418 2.48282ZM32.9572 15.4118V17.6726H30.0041H27.0509V15.4118V13.1511H30.0041H32.9572V15.4118ZM25.1356 17.729C25.1653 18.8718 25.2009 19.0685 25.422 19.3055L25.6746 19.5763H30.0041H34.3335L34.5862 19.3055C34.8072 19.0685 34.8429 18.8718 34.8725 17.729L34.9063 16.4232L39.9562 16.3922C43.758 16.3688 45.0061 16.3956 45.0061 16.5007C45.0061 16.9225 44.0161 19.4551 43.0596 21.4801C40.6653 26.5493 39.9247 29.4239 39.3346 35.9369C38.9641 40.0269 38.7478 40.8379 37.9145 41.2613C36.9822 41.7351 35.8461 41.3921 35.1476 40.4258C34.2785 39.2233 33.8057 37.5993 33.0122 33.0904C32.4645 29.9783 32.0458 28.2629 31.6941 27.6911C31.103 26.7298 30.3913 26.3633 29.5554 26.5901C28.6985 26.8225 28.0844 27.8061 27.6571 29.6306C27.5192 30.2196 27.1928 31.933 26.9317 33.4382C26.2375 37.4414 25.6809 39.2988 24.82 40.4849C24.161 41.3928 23.002 41.7228 22.0936 41.2613C21.2604 40.8379 21.0441 40.0269 20.6735 35.9369C20.0829 29.4183 19.3291 26.5041 16.9145 21.4032C15.9867 19.4437 15.002 16.9193 15.002 16.5007C15.002 16.3956 16.2502 16.3688 20.0519 16.3922L25.1018 16.4232L25.1356 17.729ZM13.8796 19.1599C14.0629 19.6834 14.4959 20.7201 14.8417 21.4637C15.4131 22.692 15.4465 22.8079 15.2069 22.7301C14.7417 22.5792 12.5984 22.5271 12.0521 22.6534C11.7615 22.7205 11.5087 22.7604 11.4903 22.7418C11.4718 22.7234 11.7171 22.1507 12.0352 21.4695C12.3534 20.7882 12.7922 19.7391 13.0105 19.1384C13.2287 18.5375 13.4386 18.0823 13.4768 18.127C13.5151 18.1715 13.6963 18.6363 13.8796 19.1599ZM47.96 21.3359L48.6589 22.798L48.2206 22.7042C47.6442 22.581 45.4055 22.5837 44.9218 22.7083L44.5421 22.806L45.1326 21.545C45.4574 20.8514 45.8823 19.8436 46.0767 19.3054C46.2711 18.7674 46.4604 18.2467 46.4971 18.1485C46.5362 18.0437 46.7077 18.363 46.9123 18.9219C47.104 19.4455 47.5755 20.5318 47.96 21.3359Z" fill="#F4F4F4"/>
</svg>
