<svg width="536" height="536" viewBox="0 0 536 536" fill="none" xmlns="http://www.w3.org/2000/svg">
<path opacity="0.8" d="M268 0C120.227 0 0 120.227 0 268C0 415.773 120.227 536 268 536C315.126 536 361.466 523.601 402.033 500.128L368.5 442.124C338.108 459.709 303.348 469 268 469C157.163 469 66.9997 378.837 66.9997 268C66.9997 157.163 157.163 66.9997 268 66.9997C378.837 66.9997 469 157.163 469 268V297.181C469 319.101 454.917 335 435.5 335C417.032 335 401.999 319.967 401.999 301.499V167.5H355.69C332.123 146.912 301.676 133.999 268 133.999C194.113 133.999 133.999 194.113 133.999 268C133.999 341.887 194.113 402.001 268 402.001C303.185 402.001 334.996 388.086 358.931 365.826C377.381 387.752 404.669 402.001 435.5 402.001C491.852 402.001 536 355.955 536 297.181V268C536 120.227 415.773 0 268 0ZM268 335C231.048 335 201 304.951 201 268C201 231.048 231.049 201 268 201C304.952 201 335 231.049 335 268C335 304.952 304.952 335 268 335Z" fill="#FF0000"/>
</svg>
