<svg width="40" height="40" viewBox="0 0 40 40" fill="none" xmlns="http://www.w3.org/2000/svg">
<path d="M9.7456 0.0562782C7.2407 0.384968 5.02544 1.47278 3.24853 3.2571C1.66732 4.83012 0.67319 6.66139 0.180039 8.91527L0 9.71352V20.0047V30.2958L0.180039 31.0941C1.17417 35.5862 4.41487 38.8261 8.90802 39.82L9.70646 40H20H30.2935L31.092 39.82C33.0489 39.3896 34.5988 38.6305 36.1096 37.3627C37.9726 35.7975 39.2642 33.6218 39.82 31.0941L40 30.2958V20.0047V9.71352L39.82 8.91527C38.8337 4.43882 35.6243 1.21452 31.1311 0.18932L30.3718 0.0171509L20.3131 0.00149918C14.7789 -0.00632858 10.0274 0.0171509 9.7456 0.0562782ZM30.9667 2.56841C34.2935 3.48405 36.5245 5.71445 37.4481 9.04049L37.6517 9.79178V20.0047V30.2175L37.4481 30.9688C36.5245 34.2949 34.2935 36.5253 30.9667 37.4487L30.2153 37.6522H20H9.78474L9.03327 37.4487C5.70646 36.5253 3.47554 34.287 2.55969 30.9688L2.34834 30.2175L2.32485 20.4351C2.3092 13.7126 2.32485 10.4492 2.38748 10.0031C2.70059 7.63964 3.95303 5.50315 5.90215 4.0397C6.91194 3.27275 8.5636 2.59189 9.86301 2.40407C10.1213 2.36494 14.8102 2.34146 20.274 2.34929L30.2153 2.35711L30.9667 2.56841Z" fill="#232121"/>
<path d="M9.7456 0.0562782C7.2407 0.384968 5.02544 1.47278 3.24853 3.2571C1.66732 4.83012 0.67319 6.66139 0.180039 8.91527L0 9.71352V20.0047V30.2958L0.180039 31.0941C1.17417 35.5862 4.41487 38.8261 8.90802 39.82L9.70646 40H20H30.2935L31.092 39.82C33.0489 39.3896 34.5988 38.6305 36.1096 37.3627C37.9726 35.7975 39.2642 33.6218 39.82 31.0941L40 30.2958V20.0047V9.71352L39.82 8.91527C38.8337 4.43882 35.6243 1.21452 31.1311 0.18932L30.3718 0.0171509L20.3131 0.00149918C14.7789 -0.00632858 10.0274 0.0171509 9.7456 0.0562782ZM30.9667 2.56841C34.2935 3.48405 36.5245 5.71445 37.4481 9.04049L37.6517 9.79178V20.0047V30.2175L37.4481 30.9688C36.5245 34.2949 34.2935 36.5253 30.9667 37.4487L30.2153 37.6522H20H9.78474L9.03327 37.4487C5.70646 36.5253 3.47554 34.287 2.55969 30.9688L2.34834 30.2175L2.32485 20.4351C2.3092 13.7126 2.32485 10.4492 2.38748 10.0031C2.70059 7.63964 3.95303 5.50315 5.90215 4.0397C6.91194 3.27275 8.5636 2.59189 9.86301 2.40407C10.1213 2.36494 14.8102 2.34146 20.274 2.34929L30.2153 2.35711L30.9667 2.56841Z" stroke="#232121"/>
<path d="M8.69784 12.0667C7.66967 12.2802 7.0688 12.9473 7.00871 13.9346C6.982 14.3949 7.00203 14.5083 7.28244 15.3021C9.11846 20.639 12.0628 24.755 15.441 26.7229C17.03 27.6502 18.6657 28.0704 20.4016 27.9904C21.343 27.9504 21.6968 27.837 22.1441 27.4367C22.6983 26.9364 22.7784 26.6695 22.8185 25.1419L22.8518 23.841L23.9401 24.875C26.0432 26.8697 26.4171 27.1899 26.9512 27.4701C27.8525 27.937 28.0928 27.9771 30.0691 27.9771H31.8049L32.1988 27.7769C32.5059 27.6235 32.6395 27.4967 32.7997 27.2499C32.9733 26.9564 33 26.863 33 26.416C33 25.9758 32.9666 25.8423 32.7864 25.4754C32.526 24.9484 32.299 24.6682 30.2026 22.3401C29.2879 21.3327 28.5201 20.4321 28.4867 20.3454C28.3999 20.132 28.5068 19.8251 28.7872 19.4582C29.2545 18.8378 31.5579 15.4156 31.7181 15.102C32.2856 13.9746 32.2255 12.9473 31.5579 12.3802C31.1573 12.0334 30.9437 12 29.2812 12C27.6722 12 27.285 12.04 26.7776 12.2802C26.2034 12.547 25.8229 13.014 25.4156 13.9413C24.8147 15.3155 23.8266 16.9299 23.0989 17.7371L22.8251 18.0373L22.8185 15.8292C22.8185 13.3809 22.7918 13.1674 22.3979 12.6538C22.2777 12.4937 22.0306 12.2935 21.8237 12.1868L21.4698 12H19.2866C16.9566 12 16.5827 12.04 16.0886 12.3469C15.7949 12.527 15.4944 13.0007 15.4343 13.3742C15.3809 13.7211 15.4811 14.028 15.7815 14.4749C15.9017 14.6617 16.0352 14.9286 16.0753 15.0687C16.1153 15.2221 16.1354 16.0093 16.1287 17.0433L16.1087 18.7644L15.7682 18.2641C14.9937 17.1367 14.266 15.6624 13.4915 13.6678C12.8172 11.9066 12.9707 12 10.6674 12.0067C9.73269 12.0133 8.84472 12.04 8.69784 12.0667ZM11.5153 14.1147C11.9626 15.4422 13.2111 18.0239 13.9455 19.138C15.421 21.3928 17.2103 22.3667 17.958 21.3261L18.1116 21.1059L18.1316 18.164C18.1516 15.2154 18.1316 14.9352 17.9046 14.1481L17.8646 14.0013H19.34H20.8155V16.7831C20.8155 19.3648 20.8289 19.5916 20.9424 19.8451C21.2562 20.5322 22.2576 20.8724 22.972 20.5389C23.3192 20.3788 24.3741 19.3581 24.9416 18.6443C25.7895 17.577 26.7642 15.9292 27.2917 14.6617C27.4385 14.3015 27.552 14.128 27.6655 14.0747C27.7657 14.028 28.2531 14.0013 28.894 14.0013C29.802 14.0013 29.9622 14.0146 29.9622 14.1014C29.9622 14.1948 29.1076 15.4889 27.7991 17.3702C26.8176 18.7777 26.7709 18.8511 26.6374 19.218C26.3636 19.9518 26.3903 20.6323 26.7242 21.3127C26.831 21.5329 27.5454 22.3801 28.7404 23.721C29.7619 24.855 30.6432 25.8357 30.6966 25.9024C30.7834 26.0158 30.7367 26.0225 29.6284 25.9958C27.966 25.9624 28.0661 26.0225 25.8696 23.9344C24.6612 22.7937 24.0202 22.2333 23.7865 22.1199C23.1256 21.793 22.3778 21.7597 21.7302 22.0265C21.4765 22.1399 21.0492 22.4935 20.929 22.7003C20.8756 22.7937 20.8356 23.3607 20.8155 24.4081L20.7822 25.9758L19.8475 25.9691C18.6924 25.9624 18.165 25.829 17.0367 25.282C15.9551 24.755 15.2007 24.1946 14.1725 23.1739C12.1829 21.1993 10.5873 18.5376 9.32543 15.082C9.14516 14.5817 9.01163 14.1347 9.02499 14.088C9.05169 14.0213 9.3321 14.0013 10.2668 14.0013C11.3551 14.0013 11.4752 14.0146 11.5153 14.1147Z" fill="#232121"/>
</svg>
