<svg width="40" height="40" viewBox="0 0 40 40" fill="none" xmlns="http://www.w3.org/2000/svg">
<path fill-rule="evenodd" clip-rule="evenodd" d="M9.5206 0.0797265C8.2104 0.229985 6.67624 0.737567 5.50327 1.40893C2.47135 3.14413 0.470774 6.17884 0.0865309 9.62533C-0.0288436 10.6606 -0.0288436 29.3274 0.0865309 30.3626C0.646609 35.3863 4.61231 39.3532 9.63449 39.9134C10.6694 40.0289 29.3306 40.0289 30.3655 39.9134C35.3877 39.3532 39.3534 35.3863 39.9135 30.3626C40.0288 29.3274 40.0288 10.6606 39.9135 9.62533C39.3534 4.60163 35.3877 0.634738 30.3655 0.0744913C29.4463 -0.0280253 10.4186 -0.0232589 9.5206 0.0797265ZM31.1761 2.58138C32.7993 3.02919 34.0497 3.73993 35.1494 4.84003C36.2486 5.93958 36.9584 7.18861 37.4079 8.8145L37.6147 9.56259V19.994V30.4253L37.4079 31.1734C36.9584 32.7993 36.2486 34.0484 35.1494 35.1479C34.0501 36.2475 32.8015 36.9575 31.1761 37.4071L30.4282 37.614H20H9.57177L8.8239 37.4071C7.19851 36.9575 5.94985 36.2475 4.85063 35.1479C3.75141 34.0484 3.04159 32.7993 2.59212 31.1734L2.38527 30.4253V19.994V9.56259L2.59212 8.8145C3.04104 7.19064 3.75141 5.9395 4.84633 4.84425C6.14334 3.54685 7.85443 2.68343 9.64988 2.42034C9.90766 2.3826 14.6882 2.35697 20.2734 2.36338L30.4282 2.3751L31.1761 2.58138ZM30.8188 5.20368C28.9166 5.46599 27.6145 7.32035 28.0737 9.1133C28.4007 10.3902 29.2064 11.199 30.4753 11.5242C32.6206 12.074 34.7316 10.1258 34.3738 7.92654C34.1745 6.70158 33.2799 5.67321 32.1077 5.32151C31.7669 5.21931 31.1286 5.16094 30.8188 5.20368ZM31.6948 7.69658C32.1142 7.95819 32.1837 8.61173 31.8312 8.97968C31.5488 9.27465 31.1919 9.3438 30.8324 9.17315C30.2862 8.91389 30.1687 8.1976 30.6049 7.78668C30.9296 7.48093 31.2999 7.45029 31.6948 7.69658ZM18.4946 9.17487C14.1732 9.76403 10.5278 13.0184 9.42405 17.2724C8.45528 21.0058 9.53943 24.9382 12.2983 27.6979C16.5973 31.9983 23.4026 31.9983 27.7017 27.6979C32.0005 23.3978 32.0005 16.5868 27.7017 12.2908C25.2343 9.82513 21.9292 8.70659 18.4946 9.17487ZM21.2498 11.5123C23.124 11.7965 24.7203 12.6021 26.0549 13.9372C29.4168 17.3001 29.4168 22.6878 26.0549 26.0507C22.6931 29.4136 17.3069 29.4136 13.9451 26.0507C10.5832 22.6878 10.5832 17.3001 13.9451 13.9372C15.8889 11.9927 18.5635 11.1049 21.2498 11.5123Z" fill="#FD3131"/>
</svg>
